<svg xmlns="http://www.w3.org/2000/svg" width="232.864" height="171.569" viewBox="0 0 232.864 171.569"><g transform="translate(0 -0.001)"><rect width="97.881" height="2.871" transform="translate(134.983 63.53)" fill="#e6e6e6"/><rect width="24.797" height="24.797" transform="translate(143.074 39.517)" fill="#e6e6e6"/><rect width="14.878" height="14.878" transform="translate(148.033 44.476)" fill="#ccc"/><rect width="6.264" height="24.797" transform="translate(198.671 39.517)" fill="#e6e6e6"/><rect width="6.264" height="2.871" transform="translate(198.671 43.432)" fill="#ccc"/><rect width="6.264" height="2.871" transform="translate(198.671 55.961)" fill="#ccc"/><rect width="6.264" height="24.797" transform="translate(189.013 39.517)" fill="#e6e6e6"/><rect width="6.264" height="2.871" transform="translate(189.013 43.432)" fill="#ccc"/><rect width="6.264" height="2.871" transform="translate(189.013 55.961)" fill="#ccc"/><rect width="6.264" height="24.797" transform="matrix(0.896, -0.444, 0.444, 0.896, 204.718, 42.194)" fill="#e6e6e6"/><rect width="6.264" height="2.871" transform="matrix(0.896, -0.444, 0.444, 0.896, 206.456, 45.702)" fill="#ccc"/><rect width="6.264" height="2.871" transform="matrix(0.896, -0.444, 0.444, 0.896, 212.015, 56.93)" fill="#ccc"/><path d="M509.267,170.382l3.155,5.464,3.155,5.464H502.958l3.155-5.464Z" transform="translate(-356.927 -120.912)" fill="#e6e6e6"/><path d="M528.146,173.978l3.155,5.464,3.155,5.464H521.837l3.155-5.464Z" transform="translate(-370.325 -123.464)" fill="#e6e6e6"/><circle cx="1.827" cy="1.827" r="1.827" transform="translate(158.213 45.259)" fill="#e6e6e6"/><rect width="97.881" height="2.871" transform="translate(232.864 26.988) rotate(180)" fill="#e6e6e6"/><rect width="24.797" height="24.797" transform="translate(224.772 24.9) rotate(180)" fill="#e6e6e6"/><rect width="14.878" height="14.878" transform="translate(219.813 19.94) rotate(180)" fill="#ccc"/><rect width="6.264" height="24.797" transform="translate(169.176 24.9) rotate(180)" fill="#e6e6e6"/><rect width="6.264" height="2.871" transform="translate(169.176 6.889) rotate(180)" fill="#ccc"/><rect width="6.264" height="2.871" transform="translate(169.176 19.418) rotate(180)" fill="#ccc"/><rect width="6.264" height="24.797" transform="translate(178.833 24.9) rotate(180)" fill="#e6e6e6"/><rect width="6.264" height="2.871" transform="translate(178.833 6.889) rotate(180)" fill="#ccc"/><rect width="6.264" height="2.871" transform="translate(178.833 19.418) rotate(180)" fill="#ccc"/><rect width="6.264" height="24.797" transform="matrix(-0.896, -0.444, 0.444, -0.896, 152.126, 25.002)" fill="#e6e6e6"/><rect width="6.264" height="2.871" transform="matrix(-0.896, -0.444, 0.444, -0.896, 160.117, 8.862)" fill="#ccc"/><rect width="6.264" height="2.871" transform="matrix(-0.896, -0.444, 0.444, -0.896, 154.558, 20.09)" fill="#ccc"/><path d="M726.823,34.634,723.669,40.1l-3.155,5.464h12.619L729.978,40.1Z" transform="translate(-511.317 -24.578)" fill="#e6e6e6"/><path d="M707.944,38.23l-3.155,5.464-3.155,5.464h12.619L711.1,43.694Z" transform="translate(-497.919 -27.13)" fill="#e6e6e6"/><circle cx="1.827" cy="1.827" r="1.827" transform="translate(205.979 5.845)" fill="#e6e6e6"/><rect width="97.881" height="2.871" transform="translate(232.864 105.815) rotate(180)" fill="#e6e6e6"/><rect width="24.797" height="24.797" transform="translate(224.772 103.727) rotate(180)" fill="#e6e6e6"/><rect width="14.878" height="14.878" transform="translate(219.813 98.767) rotate(180)" fill="#ccc"/><rect width="6.264" height="24.797" transform="translate(169.176 103.727) rotate(180)" fill="#e6e6e6"/><rect width="6.264" height="2.871" transform="translate(169.176 85.716) rotate(180)" fill="#ccc"/><rect width="6.264" height="2.871" transform="translate(169.176 98.245) rotate(180)" fill="#ccc"/><rect width="6.264" height="24.797" transform="translate(178.833 103.727) rotate(180)" fill="#e6e6e6"/><rect width="6.264" height="2.871" transform="translate(178.833 85.716) rotate(180)" fill="#ccc"/><rect width="6.264" height="2.871" transform="translate(178.833 98.245) rotate(180)" fill="#ccc"/><rect width="6.264" height="24.797" transform="matrix(-0.896, -0.444, 0.444, -0.896, 152.126, 103.829)" fill="#e6e6e6"/><rect width="6.264" height="2.871" transform="matrix(-0.896, -0.444, 0.444, -0.896, 160.117, 87.689)" fill="#ccc"/><rect width="6.264" height="2.871" transform="matrix(-0.896, -0.444, 0.444, -0.896, 154.558, 98.917)" fill="#ccc"/><path d="M726.823,306.129l-3.155,5.464-3.155,5.464h12.619l-3.155-5.464Z" transform="translate(-511.317 -217.246)" fill="#e6e6e6"/><path d="M707.944,309.725l-3.155,5.464-3.155,5.464h12.619l-3.155-5.464Z" transform="translate(-497.919 -219.798)" fill="#e6e6e6"/><circle cx="1.827" cy="1.827" r="1.827" transform="translate(205.979 84.672)" fill="#e6e6e6"/><ellipse cx="115.304" cy="8.189" rx="115.304" ry="8.189" transform="translate(0 155.191)" fill="#e6e6e6"/><path d="M757.454,672.2c-18.8-3.346-39.361-2.79-60.928,0,9.83-8.3,18.313-16.6,8.484-24.9,19.174,3.956,21.86,3.555,43.189,0C743.252,655.6,752.507,663.9,757.454,672.2Z" transform="translate(-552.068 -504.233)" fill="#6c63ff"/><path d="M757.454,672.2c-18.8-3.346-39.361-2.79-60.928,0,9.83-8.3,18.313-16.6,8.484-24.9,19.174,3.956,21.86,3.555,43.189,0C743.252,655.6,752.507,663.9,757.454,672.2Z" transform="translate(-552.068 -504.233)" opacity="0.2"/><path d="M764.077,672.284c-15.971-2.671-33.436-2.227-51.756,0,8.35-6.624,15.557-13.248,7.207-19.872,16.288,3.157,18.569,2.838,36.688,0C752.013,659.036,759.874,665.66,764.077,672.284Z" transform="translate(-563.277 -507.858)" fill="#6c63ff"/><circle cx="8.51" cy="8.51" r="8.51" transform="translate(186.207 136.734)" fill="#2f2e41"/><path d="M514.372,466.249l5.9.983,2.948,8.517L514.7,480.99l-9.827-14.741h9.5Z" transform="translate(-358.286 -330.876)" fill="#a0616a"/><circle cx="13.758" cy="13.758" r="13.758" transform="translate(159.035 120.96)" fill="#a0616a"/><path d="M409.33,445.919s-33.412,3.6-39.308,2.948a73.009,73.009,0,0,1-8.517-1.31s-3.931,5.241-1.965,7.534a14.175,14.175,0,0,0,3.931,3.276s3.6-.983,6.224,0,29.154,5.241,33.739,1.31S409.33,445.919,409.33,445.919Z" transform="translate(-312.533 -361.319)" fill="#2f2e41"/><path d="M420.174,548.679s-21.947-6.224-25.878-33.739v-2.621s-4.342,7.618-5.9,9.172c-1.8,1.8-8.189,18.016-7.862,19.654a3.925,3.925,0,0,1,0,2.293l-9.5-.983v-2.948s5.077-15.232,5.4-18.835,12.611-28.662,12.611-28.662,4.586-9.5,12.448,0,8.517,16.051,8.517,16.051l10.155,19.654Z" transform="translate(-321.084 -391.031)" fill="#2f2e41"/><path d="M326.155,431.539l-10.482-3.6s-9.827-7.206-7.534,0,12.775,22.93,15.723,21.292,6.494-5.7,5.7-6.291S323.535,438.091,326.155,431.539Z" transform="translate(-276.201 -346.284)" fill="#2f2e41"/><path d="M339.427,659.259l-8.462,4.132s-10.233,1.574-4.526,4.526,21.45,6.1,22.237,3.345.475-7.327-.353-7.206S341.788,664.769,339.427,659.259Z" transform="translate(-288.206 -512.717)" fill="#2f2e41"/><path d="M522.549,601.431s-4.258,18.344,2.948,22.275,57.652,4.586,61.583-2.621,1.965-7.207,1.965-7.207l-10.482-11.792,8.517-.655a3.057,3.057,0,0,0-2.948-2.948c-2.948-.328-12.12-3.6-19.982-1.31s-12.448-4.586-12.448-4.586Z" transform="translate(-427.718 -465.402)" fill="#575a89"/><path d="M293.826,267.066l-5.569,30.464,38.326-4.586,6.879-27.516Z" transform="translate(-204.563 -188.362)" fill="#3f3d56"/><path d="M300.177,271.015,295.591,298.2l34.886-4.094,6.715-24.731Z" transform="translate(-209.768 -191.165)" fill="#fff"/><path d="M287.966,376.32l-1.31-.327L286,377.3l10.482,29.154.986-.377.324-1.916Z" transform="translate(-202.962 -266.825)" fill="#b3b3b3"/><path d="M288.257,364.456l10.482,30.464,39.636-5.9L326.583,360.2Z" transform="translate(-204.563 -255.616)" fill="#d0cde1"/><path d="M306.309,363.474v1.638l29.153-3.276-.327-1.638Z" transform="translate(-217.374 -255.616)" fill="#3f3d56"/><path d="M308.565,375.556l4.586,12.775,29.809-3.6-5.241-12.12Z" transform="translate(-218.975 -264.423)" fill="#3f3d56"/><path d="M603.825,566.482l-.983-2.621s-7.534-13.1-11.465-10.482,8.189,15.4,8.189,15.4H603.5Z" transform="translate(-476.893 -437.333)" fill="#a0616a"/><path d="M546.2,568.431l-.983-3.931s-2.621-12.12,1.965-11.465,5.9,12.12,5.9,12.12l-.328,2.621Z" transform="translate(-444.162 -437.317)" fill="#a0616a"/><path d="M555.022,599.437s-8.517-1.31-8.844.655-1.966,31.446,6.224,32.429,48.808,5.241,44.549-4.914-10.81-8.844-10.81-8.844L558.3,621.712Z" transform="translate(-445.123 -469.96)" fill="#575a89"/><path d="M431.85,444.1l-8.68-6.06-5.733,4.422,7.207,7.862Z" transform="translate(-296.237 -310.86)" fill="#575a89"/><path d="M386.976,479.224l1.31,12.448,22.6-1.31-19.654-.328Z" transform="translate(-274.62 -340.084)" opacity="0.2"/><circle cx="16.378" cy="16.378" r="16.378" transform="translate(163.205 120.84)" fill="#2f2e41"/><path d="M328.309,287.72l20.309-.707,1.965-7.482-20.964.633Z" transform="translate(-232.986 -198.37)" fill="#6c63ff"/><path d="M310.258,316.8l30.791-.983.328-1.31-30.791,1.084Z" transform="translate(-220.176 -223.19)" fill="#e6e6e6"/><path d="M308,328.08l30.792-.983.328-1.31-30.792,1.084Z" transform="translate(-218.575 -231.196)" fill="#e6e6e6"/><path d="M306.873,337.106l30.791-.983.328-1.31L307.2,335.9Z" transform="translate(-217.774 -237.602)" fill="#e6e6e6"/></g></svg>