<svg xmlns="http://www.w3.org/2000/svg" xmlns:xlink="http://www.w3.org/1999/xlink" width="649.739" height="508.811" viewBox="0 0 649.739 508.811"><defs><linearGradient id="a" x1="0.5" y1="1" x2="0.5" gradientUnits="objectBoundingBox"><stop offset="0" stop-color="gray" stop-opacity="0.251"/><stop offset="0.54" stop-color="gray" stop-opacity="0.122"/><stop offset="1" stop-color="gray" stop-opacity="0.102"/></linearGradient></defs><g transform="translate(0 -0.008)"><path d="M474.482,139.144c-41.112-1.408-80.274-14.479-117.663-28.783S282.4,80.208,242.268,72.63c-25.809-4.874-55.328-5.563-76.12,8.066-20.016,13.14-26.483,35.76-29.957,56.771-2.617,15.806-4.154,32.437,3.017,47.235,4.974,10.274,13.81,18.909,19.914,28.783,21.261,34.239,6.238,76.463-16.8,109.895-10.8,15.687-23.345,30.66-31.679,47.342s-12.2,35.822-4.9,52.854c7.235,16.894,24.469,29.559,43.132,38.475,37.917,18.115,82.58,23.3,126.163,26.23,96.447,6.5,193.4,3.685,290.1.87,35.789-1.045,71.73-2.1,106.934-7.552,19.552-3.029,39.734-7.828,53.931-19.429,18.015-14.723,22.481-39.658,10.411-58.117-20.258-30.967-76.227-38.657-90.406-71.9-7.788-18.29.216-38.663,11.536-55.633,24.291-36.392,65-68.322,67.15-109.92,1.474-28.577-18.1-57.184-48.366-70.706-31.717-14.223-75.713-12.421-99.1,11.038C553.124,131.11,510.779,140.383,474.482,139.144Z" transform="translate(-93.434 -53.155)" fill="#107bff" opacity="0.1"/><path d="M298.19,581.053,80.764,580.008l-21.6-49.914,76.393-5.463-13.314-54.725,151.1-19.291L128.648,401.071l12.781-2.991,232.653,37.387-12.813,85.4-18.314,46.935Z" transform="translate(-21.58 -148.991)" fill="#107bff"/><path d="M187,698.718s13.34-2.1,21.344,7.183c0,0-5.87,4.555-18.5-1.752Z" transform="translate(-124.481 -288.607)" fill="#107bff"/><path d="M181.653,698.51s-8.512,10.318-4.32,21.806c0,0,6.937-2.734,7.693-16.663Z" transform="translate(-120.531 -288.605)" fill="#107bff"/><path d="M172.76,669.4s5.336-9.642,26.68,3.854c0,0-2.846,6.482-12.273,5.957S175.25,674.485,172.76,669.4Z" transform="translate(-119.286 -276.462)" fill="#107bff"/><path d="M163.616,670.284S152.544,669.032,151.47,694c0,0,7.019,1.433,12.006-6.464S166.417,675.208,163.616,670.284Z" transform="translate(-111.52 -278.037)" fill="#107bff"/><path d="M160.44,632.929s6.225-16.995,28.814-4.906c0,0-5.158,15.593-26.5,10.687Z" transform="translate(-114.792 -260.598)" fill="#107bff"/><path d="M149.52,593.065s11.739-17.17,32.549-1.251c0,0-7.292,16.119-30.771,7.358Z" transform="translate(-110.809 -246.139)" fill="#107bff"/><path d="M145.6,555.026s13.7-15.774,34.3,0c0,0-12.984,13.841-34.3,4.03Z" transform="translate(-109.379 -232.278)" fill="#107bff"/><path d="M142.24,517.152s13.873-16.469,33.616-.876c0,0-15.652,14.542-33.616,4.73Z" transform="translate(-108.154 -217.887)" fill="#107bff"/><path d="M144.2,481.3s14.61-21.2,33.083-6.833c0,0-15.652,18.221-33.083,10.863Z" transform="translate(-108.869 -202.879)" fill="#107bff"/><path d="M149.52,442.878s15.474-21.024,33.438-4.906c0,0-18.32,18.221-33.438,8.76Z" transform="translate(-110.809 -188.815)" fill="#107bff"/><path d="M157.18,406.441s18.32-19.76,34.3-11.889c0,0-19.089,20.987-35.1,17.132Z" transform="translate(-113.311 -174.146)" fill="#107bff"/><path d="M166.859,371.05s21.14-24.2,33.438-16.118c0,0-15.576,18.772-34.938,20.649Z" transform="translate(-116.587 -159.392)" fill="#107bff"/><path d="M180.844,334.076s18.5-19.76,32.022-14.855c0,0-15.83,20.5-34.506,21.024Z" transform="translate(-121.329 -146.352)" fill="#107bff"/><path d="M194.929,298.088s20.454-18.922,29.348-15.593c0,0-14.763,21.024-30.237,19.8Z" transform="translate(-127.049 -132.751)" fill="#107bff"/><path d="M208.32,262.077s17.609-22.607,27.22-20.855c0,0-10.678,20.154-27.22,23.152Z" transform="translate(-132.258 -117.415)" fill="#107bff"/><path d="M221.932,219.719s15.563-17.326,23.974-17.289c0,0-12.285,23.152-24.615,22.939Z" transform="translate(-136.989 -102.932)" fill="#107bff"/><path d="M229.482,178.811l15.036-36.091s.75,32.625-16.948,42.787Z" transform="translate(-139.28 -80.583)" fill="#107bff"/><path d="M240.132,117.294s2.49-30.141.889-32.594c0,0,10.748,25.06-.991,45.909Z" transform="translate(-143.825 -58.868)" fill="#107bff"/><path d="M144.772,636.668s-15.589-9.517-25.682,13.766c0,0,13.873,9.073,27.518-7.828Z" transform="translate(-99.709 -264.738)" fill="#107bff"/><path d="M132.425,595.429s-19.12-8.591-28.395,15.718c0,0,14.769,10.011,30.135-9.574Z" transform="translate(-94.216 -249.472)" fill="#107bff"/><path d="M124.5,557.336s-13.7-15.774-34.3,0c0,0,12.984,13.841,34.3,4.03Z" transform="translate(-89.171 -233.143)" fill="#107bff"/><path d="M122.2,517.152s-13.873-16.469-33.616-.876c0,0,15.652,14.542,33.616,4.73Z" transform="translate(-88.58 -217.887)" fill="#107bff"/><path d="M126.465,479.708s-9.732-23.746-30.885-13.534c0,0,11.434,21.055,30.021,17.476Z" transform="translate(-91.133 -200.692)" fill="#107bff"/><path d="M133.576,439.736s-9.675-24.159-31.126-12.959c0,0,13.137,22.144,30.173,16.688Z" transform="translate(-93.639 -185.792)" fill="#107bff"/><path d="M148.488,397.588s-3.811-26.487-21.6-28.858c0,0,3.773,27.932,19.2,33.632Z" transform="translate(-102.554 -165.175)" fill="#107bff"/><path d="M159.132,362.005s-1.486-31.912-16.192-33.025c0,0,.5,24.222,14.534,37.543Z" transform="translate(-108.409 -150.297)" fill="#107bff"/><path d="M174.092,324.188s-4.383-26.537-18.422-29.778c0,0,1.741,25.7,17.03,36.292Z" transform="translate(-113.052 -137.358)" fill="#107bff"/><path d="M192.35,289.035s-.146-27.644-8.722-31.705c0,0-5.317,25.029,6.238,35.234Z" transform="translate(-122.806 -123.48)" fill="#107bff"/><path d="M203.36,254.685s-1.2-28.464-10.081-32.475c0,0-3.036,22.526,8.753,34.339Z" transform="translate(-126.643 -110.335)" fill="#107bff"/><path d="M219.391,216.593s-.051-23.152-6.39-28.583c0,0-6.3,25.36,3.081,33.238Z" transform="translate(-133.21 -97.535)" fill="#107bff"/><path d="M224.515,175.532,218.347,137s-8.379,31.574,6.46,45.49Z" transform="translate(-135.055 -78.442)" fill="#107bff"/><path d="M222.393,120.153s-15.83-25.9-15.506-28.783c0,0,1.683,27.15,21.6,40.672Z" transform="translate(-131.733 -61.364)" fill="#107bff"/><path d="M221.759,101.351s-14.941-36.792-21.7-39.771c0,0,21.344,10.687,22.944,38.719Z" transform="translate(-129.245 -50.214)" fill="#107bff"/><path d="M220.583,195.252l-1.023-.307c12.609-40.5,15.754-66.326,8.861-72.8l.731-.763C236.463,128.213,233.5,153.755,220.583,195.252Z" transform="translate(-136.358 -72.596)" fill="#444053"/><path d="M165.642,332.5l-1.512-.532c1.34-3.711,2.782-7.477,4.294-11.188,13.162-32.312,24.367-62.372,31.552-85.448l1.315-.626c-7.2,23.12-18.206,54.331-31.38,86.687C168.405,325.039,166.969,328.787,165.642,332.5Z" transform="translate(-116.138 -115.013)" fill="#444053"/><path d="M188.6,611.828c-.2-.219-20.639-22.889-34.887-61.589a224.869,224.869,0,0,1-13.765-70.569c-.978-30.116,5.438-63.742,16.427-94.29l1.194,1.377c-24.672,68.56-14.871,127.309-1.868,162.687,14.1,38.35,34.3,60.77,34.5,61Z" transform="translate(-107.28 -171.406)" fill="#444053"/><path d="M642.329,670.36s-14.4,17.314-2.966,43.487L524.386,762.966l-11.034,2.278-5.082-21.9,3.4-27.638V700.6Z" transform="translate(-241.671 -278.069)" fill="#d5d6db"/><path d="M59.16,591.967,218.3,563.39l210.864,33.088L298.19,642.925Z" transform="translate(-21.58 -210.864)" fill="#107bff"/><path d="M59.16,591.967,218.3,563.39l210.864,33.088L298.19,642.925Z" transform="translate(-21.58 -210.864)" fill="#107bff"/><path d="M144.3,652.47s-14.883,27.776,2.268,53.43l235.988,50.37s-14.648-22.125.756-52.836Z" transform="translate(-106.72 -271.373)" fill="#107bff"/><path d="M144.3,652.47s-14.883,27.776,2.268,53.43l235.988,50.37s-14.648-22.125.756-52.836Z" transform="translate(-106.72 -271.373)" opacity="0.1"/><path d="M156.639,667.86s-8.506,20.323,0,33.476" transform="translate(-112.027 -277.134)" opacity="0.1"/><path d="M387.3,785.236,519.044,729.86s7.369,1.564,2.6,6.883-131.81,53.812-131.81,53.812L151.31,734.866Z" transform="translate(-111.462 -300.339)" fill="#107bff"/><path d="M387.3,785.236,519.044,729.86s7.369,1.564,2.6,6.883-131.81,53.812-131.81,53.812L151.31,734.866Z" transform="translate(-111.462 -300.339)" opacity="0.1"/><path d="M502.568,742.86s-12.7,15.017,0,37.543" transform="translate(-237.531 -305.205)" opacity="0.1"/><path d="M0,0,59.984.27l0,.627L0,.627Z" transform="translate(269.56 456.128) rotate(-18.45)" opacity="0.1"/><path d="M0,0,73.059.364l0,.627L0,.627Z" transform="translate(269.538 461.165) rotate(-20.82)" opacity="0.1"/><path d="M0,0,84.659.445l0,.627L0,.627Z" transform="translate(269.921 467.104) rotate(-22.26)" opacity="0.1"/><path d="M0,0,97.412.549l0,.627L0,.627Z" transform="translate(270.836 472.34) rotate(-24.31)" opacity="0.1"/><path d="M0,0,106.557.587l0,.627L0,.627Z" transform="matrix(0.916, -0.401, 0.401, 0.916, 271.543, 474.888)" opacity="0.1"/><path d="M0,0,127.52.7l0,.627L0,.627Z" transform="translate(273.02 479.167) rotate(-23.36)" opacity="0.1"/><path d="M152.23,600.092l111.8-23.152,68.109,12.827-91.613,29.1Z" transform="translate(-55.529 -215.935)" fill="#fff" opacity="0.3"/><path d="M654.991,659.69s5.781,2.3,2.388,5.844S524,706.137,524,706.137Z" transform="translate(-247.409 -274.076)" fill="#107bff"/><path d="M741.622,574.18s-14.394,17.307-2.96,43.487L623.686,666.786l-11.034,2.29-5.082-21.9,3.449-27.632V604.421Z" transform="translate(-277.893 -242.071)" fill="#d5d6db"/><path d="M158.46,495.78l159.131-28.57L528.462,500.3,397.49,546.745Z" transform="translate(-57.802 -174.865)" fill="#3a3768"/><path d="M243.557,556.29s-14.89,27.776,2.261,53.43l235.988,50.37s-14.642-22.144.781-52.842Z" transform="translate(-142.924 -235.375)" fill="#3a3768"/><path d="M243.557,556.29s-14.89,27.776,2.261,53.43l235.988,50.37s-14.642-22.144.781-52.842l-74.627-15.912Z" transform="translate(-142.924 -235.375)" opacity="0.1"/><path d="M255.931,571.68s-8.5,20.317,0,33.476" transform="translate(-148.247 -241.135)" opacity="0.1"/><path d="M486.588,689.056,618.341,633.68s7.362,1.564,2.6,6.883-131.81,53.812-131.81,53.812L250.6,638.686Z" transform="translate(-147.68 -264.34)" fill="#3a3768"/><path d="M486.588,689.056,618.341,633.68s7.362,1.564,2.6,6.883-131.81,53.812-131.81,53.812L250.6,638.686Z" transform="translate(-147.68 -264.34)" opacity="0.1"/><path d="M601.858,646.68s-12.7,15.017,0,37.543" transform="translate(-273.749 -269.206)" opacity="0.1"/><path d="M0,0,59.984.27l0,.627L0,.627Z" transform="translate(332.636 395.953) rotate(-18.45)" opacity="0.1"/><path d="M0,0,73.059.364l0,.627L0,.627Z" transform="translate(332.623 400.988) rotate(-20.82)" opacity="0.1"/><path d="M0,0,84.659.445l0,.627L0,.627Z" transform="translate(332.996 406.917) rotate(-22.26)" opacity="0.1"/><path d="M0,0,97.412.549l0,.627L0,.627Z" transform="translate(333.919 412.155) rotate(-24.31)" opacity="0.1"/><path d="M0,0,106.557.587l0,.627L0,.627Z" transform="matrix(0.916, -0.401, 0.401, 0.916, 334.616, 414.695)" opacity="0.1"/><path d="M0,0,127.52.7l0,.627L0,.627Z" transform="translate(336.098 418.974) rotate(-23.36)" opacity="0.1"/><path d="M251.53,503.912l111.8-23.152,68.109,12.827-91.613,29.1Z" transform="translate(-91.751 -179.937)" fill="#fff" opacity="0.45"/><path d="M754.3,563.51s5.774,2.3,2.388,5.838-133.36,40.6-133.36,40.6Z" transform="translate(-283.641 -238.077)" fill="#3a3768"/><path d="M751.033,464.15s-14.4,31.079-2.966,57.253L633.09,556.756l-11.009,2.3L617,537.153l3.4-27.638V494.391Z" transform="translate(-281.332 -200.889)" fill="#d5d6db"/><path d="M167.89,385.757,327.028,357.18,537.9,390.268,406.92,436.715Z" transform="translate(-61.241 -133.683)" fill="#107bff"/><path d="M253.02,446.26s-14.909,27.776,2.242,53.43L491.25,550.06s-14.648-22.144.775-52.836Z" transform="translate(-146.371 -194.193)" fill="#107bff"/><path d="M253.02,446.26s-14.909,27.776,2.242,53.43L491.25,550.06s-14.648-22.144.775-52.836Z" transform="translate(-146.371 -194.193)" opacity="0.1"/><path d="M265.369,461.65s-8.506,20.323,0,33.476" transform="translate(-151.689 -199.953)" opacity="0.1"/><path d="M496.028,582.02l131.747-41.61s7.369,1.564,2.6,6.883-131.81,40.046-131.81,40.046L260.04,531.65Z" transform="translate(-151.124 -226.153)" fill="#107bff"/><path d="M496.028,582.02l131.747-41.61s7.369,1.564,2.6,6.883-131.81,40.046-131.81,40.046L260.04,531.65Z" transform="translate(-151.124 -226.153)" opacity="0.1"/><path d="M611.3,536.65s-12.7,15.017,0,37.543" transform="translate(-277.193 -228.024)" opacity="0.1"/><path d="M0,0,59.984.27l0,.627L0,.627Z" transform="translate(338.634 327.103) rotate(-18.45)" opacity="0.1"/><path d="M0,0,73.059.364l0,.627L0,.627Z" transform="translate(338.617 332.142) rotate(-20.82)" opacity="0.1"/><path d="M0,0,84.659.445l0,.627L0,.627Z" transform="translate(338.984 338.075) rotate(-22.26)" opacity="0.1"/><path d="M0,0,97.412.549l0,.627L0,.627Z" transform="translate(339.917 343.306) rotate(-24.31)" opacity="0.1"/><path d="M0,0,106.557.587l0,.627L0,.627Z" transform="matrix(0.916, -0.401, 0.401, 0.916, 340.616, 345.852)" opacity="0.1"/><path d="M0,0,127.52.7l0,.627L0,.627Z" transform="translate(342.096 350.136) rotate(-23.36)" opacity="0.1"/><path d="M260.96,393.882l111.8-23.152,68.109,12.827-91.613,29.1Z" transform="translate(-95.191 -138.755)" fill="#fff" opacity="0.3"/><path d="M763.732,453.48s5.781,2.3,2.388,5.844-133.36,40.6-133.36,40.6Z" transform="translate(-287.081 -196.895)" fill="#107bff"/><path d="M386.627,149.9s-24.139-1.433-21.318,15.249a4.044,4.044,0,0,0,2.147,4.286s.044-1.251,2.477-.82a10.993,10.993,0,0,0,2.63.125,5.52,5.52,0,0,0,3.208-1.3h0s6.791-2.766,9.433-13.7c0,0,1.957-2.384,1.906-3l-4.091,1.714s1.391,2.9.3,5.306c0,0-.133-5.2-.921-5.081-.159,0-2.115,1.007-2.115,1.007s2.395,5.05.584,8.716c0,0,.686-6.22-1.334-8.353L376.66,155.7s2.8,5.212.9,9.467c0,0,.489-6.526-1.505-9.067l-2.6,2s2.636,5.137,1.029,8.666c0,0-.21-7.6-1.588-8.172a15.561,15.561,0,0,0-2.624,2.791s1.8,3.754.68,5.7c0,0-.68-5.062-1.27-5.087,0,0-2.268,3.354-2.5,5.631a12.051,12.051,0,0,1,1.95-5.969,6.839,6.839,0,0,0-3.468,1.771s.349-2.371,4.034-2.578c0,0,1.874-2.547,2.376-2.7,0,0-3.665-.307-5.882.663,0,0,1.957-2.234,6.549-1.251l2.541-2.065s-4.815-.626-6.86.069c0,0,2.357-1.977,7.553-.538l2.8-1.646a25.828,25.828,0,0,0-6.556-.557s2.579-1.37,7.375.113l1.995-.882s-3-.582-3.888-.676-.927-.332-.927-.332a10.635,10.635,0,0,1,5.654.626S386.709,150.164,386.627,149.9Z" transform="translate(-189.439 -83.26)" fill="#107bff"/><path d="M921.227,259.482s-24.139-1.433-21.318,15.249a4.043,4.043,0,0,0,2.147,4.286s.044-1.251,2.477-.82a11.363,11.363,0,0,0,2.63.125,5.5,5.5,0,0,0,3.176-1.3h0s6.8-2.766,9.433-13.7c0,0,1.956-2.384,1.906-3l-4.078,1.714s1.391,2.9.3,5.306c0,0-.133-5.2-.915-5.081-.159,0-2.122,1.007-2.122,1.007s2.395,5.049.591,8.716c0,0,.686-6.22-1.34-8.353l-2.871,1.652s2.8,5.212.9,9.467c0,0,.489-6.526-1.505-9.067l-2.6,2s2.63,5.137,1.023,8.666c0,0-.21-7.6-1.588-8.172a15.792,15.792,0,0,0-2.623,2.791s1.8,3.754.686,5.7c0,0-.686-5.062-1.271-5.087,0,0-2.268,3.354-2.5,5.631a12.014,12.014,0,0,1,1.956-5.969,6.871,6.871,0,0,0-3.474,1.771s.356-2.371,4.034-2.578c0,0,1.874-2.547,2.376-2.7,0,0-3.659-.3-5.882.67,0,0,1.956-2.234,6.549-1.251l2.541-2.065s-4.821-.626-6.86.069c0,0,2.35-1.977,7.553-.538l2.8-1.646a25.827,25.827,0,0,0-6.556-.557s2.579-1.37,7.375.113l2-.882s-3.011-.582-3.894-.676-.927-.332-.927-.332a10.558,10.558,0,0,1,5.654.626S921.3,259.744,921.227,259.482Z" transform="translate(-384.445 -124.273)" fill="#107bff" opacity="0.1"/><path d="M447.688,306.349s-10.519-21.481-23.91-10.894a4.077,4.077,0,0,0-2.751,3.936s1.112-.569,1.906,1.733a11.02,11.02,0,0,0,1.169,2.315,5.469,5.469,0,0,0,2.725,2.127h0s5.762,4.493,16.745,1.427c0,0,3.068.519,3.57.156l-3.506-2.672s-1.906,2.609-4.561,2.841c0,0,4.548-2.647,4.059-3.26-.1-.125-1.906-1.333-1.906-1.333s-3.31,4.524-7.439,4.755c0,0,5.844-2.44,6.746-5.225l-2.859-1.664s-3.259,4.956-7.953,5.394c0,0,6.022-2.759,7.3-5.713l-3.036-1.251s-3.271,4.768-7.184,5.112c0,0,6.632-3.886,6.467-5.356a16.3,16.3,0,0,0-3.754-.895s-2.427,3.373-4.713,3.373c0,0,4.148-3.06,3.894-3.554,0,0-4.078-.313-6.225.626a12.529,12.529,0,0,1,6.244-1.251,6.851,6.851,0,0,0-3.265-2.121s2.274-.851,4.25,2.209c0,0,3.176.369,3.551.726,0,0-1.518-3.291-3.456-4.724,0,0,2.935.582,4.275,5.006l3.081,1.2s-1.772-4.455-3.4-5.863c0,0,2.9,1.057,4.161,6.257l2.82,1.6a24.567,24.567,0,0,0-2.7-5.907s2.471,1.552,3.494,6.395l1.76,1.289s-.953-2.872-1.27-3.673-.159-.964-.159-.964a10.189,10.189,0,0,1,2.211,5.162S447.459,306.537,447.688,306.349Z" transform="translate(-209.845 -136.652)" fill="#107bff" opacity="0.1"/><path d="M831.468,202.729s-10.513-21.481-23.91-10.894a4.085,4.085,0,0,0-2.751,3.936s1.118-.563,1.906,1.733a10.79,10.79,0,0,0,1.175,2.321,5.437,5.437,0,0,0,2.719,2.121h0s5.768,4.493,16.745,1.433c0,0,3.068.513,3.576.15l-3.487-2.678s-1.906,2.616-4.555,2.847c0,0,4.542-2.653,4.053-3.266-.1-.125-1.906-1.333-1.906-1.333s-3.3,4.524-7.439,4.755c0,0,5.85-2.44,6.753-5.218l-2.9-1.652s-3.252,4.949-7.953,5.394c0,0,6.022-2.766,7.305-5.719l-3.043-1.251s-3.271,4.774-7.178,5.112c0,0,6.625-3.886,6.46-5.35a15.907,15.907,0,0,0-3.748-.895s-2.427,3.366-4.72,3.366c0,0,4.154-3.06,3.9-3.554,0,0-4.078-.313-6.232.626a12.521,12.521,0,0,1,6.244-1.251,6.811,6.811,0,0,0-3.259-2.121s2.274-.851,4.25,2.209c0,0,3.176.375,3.551.732,0,0-1.518-3.3-3.462-4.73,0,0,2.935.588,4.275,5.037l3.087,1.2s-1.772-4.461-3.4-5.869c0,0,2.9,1.057,4.154,6.257l2.827,1.6a24.8,24.8,0,0,0-2.706-5.907s2.477,1.552,3.494,6.395l1.76,1.289s-.946-2.872-1.27-3.673-.159-.957-.159-.957a10.213,10.213,0,0,1,2.2,5.162S831.271,202.93,831.468,202.729Z" transform="translate(-349.837 -97.869)" fill="#107bff" opacity="0.1"/><path d="M884.347,372.536s-10.513-21.487-23.929-10.9a4.085,4.085,0,0,0-2.75,3.936s1.118-.563,1.906,1.733a10.78,10.78,0,0,0,1.169,2.321,5.437,5.437,0,0,0,2.719,2.121h0s5.768,4.5,16.751,1.433c0,0,3.062.519,3.57.15l-3.506-2.672s-1.906,2.616-4.561,2.847c0,0,4.542-2.653,4.053-3.266-.1-.125-1.906-1.333-1.906-1.333s-3.3,4.524-7.439,4.762c0,0,5.85-2.447,6.752-5.225l-2.865-1.664s-3.252,4.956-7.953,5.394c0,0,6.022-2.766,7.305-5.719L870.62,365.2s-3.271,4.768-7.178,5.112c0,0,6.632-3.886,6.467-5.356a15.979,15.979,0,0,0-3.754-.895s-2.427,3.366-4.72,3.366c0,0,4.154-3.06,3.9-3.554,0,0-4.078-.313-6.232.626a12.559,12.559,0,0,1,6.251-1.251,6.8,6.8,0,0,0-3.265-2.121s2.274-.857,4.25,2.209c0,0,3.176.369,3.551.726,0,0-1.518-3.291-3.456-4.73,0,0,2.935.588,4.275,5.037l3.081,1.2s-1.772-4.461-3.4-5.863c0,0,2.9,1.051,4.154,6.257l2.827,1.6a24.8,24.8,0,0,0-2.706-5.907s2.477,1.552,3.5,6.4l1.76,1.251s-.953-2.872-1.271-3.673-.159-.957-.159-.957a10.15,10.15,0,0,1,2.2,5.162S884.15,372.724,884.347,372.536Z" transform="translate(-369.119 -161.422)" fill="#107bff" opacity="0.1"/><ellipse cx="14.604" cy="1.608" rx="14.604" ry="1.608" transform="translate(113.681 487.45)" fill="#107bff" opacity="0.1"/><ellipse cx="14.604" cy="1.608" rx="14.604" ry="1.608" transform="translate(17.945 460.119)" fill="#107bff" opacity="0.1"/><ellipse cx="14.604" cy="1.608" rx="14.604" ry="1.608" transform="translate(186.656 505.602)" fill="#107bff" opacity="0.1"/><ellipse cx="14.604" cy="1.608" rx="14.604" ry="1.608" transform="translate(560.615 466.063)" fill="#107bff" opacity="0.1"/><ellipse cx="14.604" cy="1.608" rx="14.604" ry="1.608" transform="translate(439.089 458.26)" fill="#107bff" opacity="0.1"/><ellipse cx="17.272" cy="2.922" rx="17.272" ry="2.922" transform="translate(357.806 493.688)" fill="#107bff" opacity="0.1"/><path d="M682.448,790.14S658.4,802.379,670.823,816.8a4.639,4.639,0,0,0,4.548,2.91s-.673-1.214,1.906-2.184a12.462,12.462,0,0,0,2.6-1.358,6.022,6.022,0,0,0,2.325-3.06h0s4.917-6.482,1.105-18.477c0,0,.5-3.391.063-3.942l-2.922,3.948s3.017,2,3.367,4.931c0,0-3.176-4.924-3.811-4.38-.14.113-1.448,2.159-1.448,2.159s5.234,3.5,5.622,8.041c0,0-2.947-6.364-6.13-7.271l-1.823,3.2s5.717,3.429,6.352,8.585c0,0-3.322-6.539-6.714-7.859l-1.34,3.385s5.514,3.454,6.022,7.746c0,0-4.612-7.177-6.27-6.952,0,0-1.042,3.179-.9,4.161,0,0,3.894,2.565,3.964,5.087,0,0-3.6-4.474-4.148-4.18,0,0-.229,4.5.877,6.839a13.344,13.344,0,0,1-1.594-6.839,7.492,7.492,0,0,0-2.306,3.654s-1.035-2.472,2.376-4.749c0,0,.324-3.5.718-3.93,0,0-3.691,1.777-5.26,3.954,0,0,.578-3.247,5.584-4.862l1.271-3.429s-5.006,2.09-6.549,3.929c0,0,1.112-3.222,6.943-4.768l1.728-3.129a29.371,29.371,0,0,0-6.619,3.129s1.683-2.772,7.153-4.048l1.4-1.971s-3.227,1.133-4.129,1.539-1.08.206-1.08.206a11.764,11.764,0,0,1,5.787-2.59S682.67,790.353,682.448,790.14Z" transform="translate(-299.665 -322.901)" fill="#107bff"/><path d="M679.82,279.5c-4.154-11.119-27.023-12.164-36.945-9.329-7.051,2.021-21.915,4.3-29.856,5.444l-.514-.482c1.029-.3,1.054-1.039.927-2.134a32.889,32.889,0,0,1,.064-4.33c4.866,1.489,9.2-2.034,9.2-2.034h0c5.717-2.5,4.18-13.215,5.272-16.144.819-2.19,1.7-15.092,2.1-21.525h.083l.044-2.159c.057-.932.083-1.477.083-1.477s.559-15.731,1.652-18.915c1.016-2.928,1.842-17.683,1.969-20.023v-.307l-.083-1.364c.057-.995.083-2.1.076-3.266,0-5.35-.565-12.089-.635-13.178v-.569c.044-2.284-.248-13.722-10.126-18.046-3.64-1.6-8.017-3.51-12.254-5.369-1.093-9.292-3.589-18.534-3.373-27.895,0-1.408.127-2.816.267-4.217,0,.407-.044.82-.051,1.251v2.728c.375-11.707,4.866-23.477,4.447-34.934-.038,1.12-.121,2.246-.229,3.373a35.853,35.853,0,0,0-1.22-11.507,6.782,6.782,0,0,0-1.995-3.567,8.286,8.286,0,0,0-3.481-1.358,70.964,70.964,0,0,0-9.141-1.677,13.829,13.829,0,0,0-2.058-3.936c-6.441-8.71-15.982-16.894-27.264-18.772-5.66-.939-12.171-.156-16.02,3.829a11.93,11.93,0,0,0-1.131,1.126c-2.071,2.434-2.96,5.631-5.082,8.059-.14.163-.3.313-.451.469-4.154,3.66-10.627,4.424-15.245,7.709a18.227,18.227,0,0,0-2.281,1.958,38.217,38.217,0,0,0-4.98,5.963c-2.077,2.878-4.212,5.876-4.872,9.311-1.328,6.883,3.43,13.409,4.313,20.336,1.969,15.5-15.442,29.252-12.146,44.545a20.319,20.319,0,0,0,5.6,9.905c-6.791,6.057-12.571,11.932-12.571,11.932v.35h-1.074l.108,1.251h-.108l.591,6.789-.591,9.886v.932h.038c.2,3.623.978,16.65,1.906,19.4,1.093,3.185,1.645,18.915,1.645,18.915s1.207,22.232,2.312,25.173-.464,13.622,5.272,16.144h0a12.169,12.169,0,0,0,5.762,2.353c-.292,2.34-.108,4.036.839,4.568a2.8,2.8,0,0,0,1.334.375,13.905,13.905,0,0,0-1.035,1.783,27.248,27.248,0,0,1-6.657-1.545c-6.162-2.5-26.61-8.134-32.549-4.174s-20.232,7.552-13.632,23.5,9.675,16.344,9.675,16.344a23.327,23.327,0,0,1,5.279,5.225c1.982,2.935,20.448,9.649,25.066,9.649a45.9,45.9,0,0,1,5.876.288s-5.012,4.33-4.345,6.845-1.525,22.651-1.525,22.651,5.082,5.043,7.254-1.571l.076.1c.407.544,2.6,3,6.74-.1a37.866,37.866,0,0,1,5.374-3.354l20.022-2.791a57.538,57.538,0,0,1,6.27-.044c3.176.257,6.3-1.6,8.258-3.028,4.148,1.552,8.811,3.247,11.028,3.867,4.5,1.251,25.168,6.714,30,5.006a6.712,6.712,0,0,0,2.6-1.827l4.612.144-2.16.425s4.205.069,9.922.144l-.241.138,7.172-.063c10.494.094,22.284.125,23.834-.219,2.427-.532,15.036-.156,18.752,0h1.035s13.854-2.722,8.137-16.569c-4.4-10.637-17.907-13.728-23.9-14.579,1.69-.332,3.144-.588,4.11-.738,4.186-.626,12.317-4.38,12.978-5.663s7.477-5.006,9.236-7.127S683.993,290.619,679.82,279.5ZM565.066,310.617l-.68.219-.457.15-.877.851c-.7-.463-1.448-.951-2.23-1.452C562.2,310.467,563.617,310.548,565.066,310.617Zm60.544,17.633Z" transform="translate(-225.656 -43.42)" fill="url(#a)"/><path d="M686.65,318.84s9.719,25.029,15.246,22.526,4.027-13.14,5.082-16.056,2.223-25.029,2.223-25.029.534-15.643,1.588-18.809c.978-2.91,1.772-17.583,1.906-19.892v-.307l-1.048-18.146-5.933-1.458-13.759,5.006-1.906,10.719-.743,4.186-.318,1.783Z" transform="translate(-306.739 -117.618)" fill="#be6f72"/><path d="M691.69,358.3s9.274,7.477,12.069,8.134,4.51,6.489,4.51,6.489" transform="translate(-308.577 -161.271)" opacity="0.1"/><path d="M552.044,320.59s-9.719,25.029-15.246,22.526-4.027-13.14-5.082-16.056-2.223-25.029-2.223-25.029-.534-15.643-1.588-18.809c-.978-2.91-1.772-17.583-1.906-19.892v-.307l1.055-18.146,5.933-1.458,13.759,5.006,1.906,10.719.743,4.186.318,1.783Z" transform="translate(-248.138 -118.273)" fill="#be6f72"/><rect width="21.693" height="33.307" transform="translate(345.501 68.375)" fill="#3e373a"/><rect width="21.693" height="33.307" transform="translate(345.501 68.375)" opacity="0.1"/><path d="M557.971,405.4s-7.413,8.028-4.663,9.486,20.543,28.783,20.543,28.783,58.441,7.089,69.462-3.548,10.8-29.64,10.8-29.64-8.855,1.877-9.821.857-6.27-5.938-6.27-5.938S563.053,400.919,557.971,405.4Z" transform="translate(-257.876 -178.154)" fill="#4b4b5b"/><path d="M557.971,405.4s-7.413,8.028-4.663,9.486,20.543,28.783,20.543,28.783,58.441,7.089,69.462-3.548,10.8-29.64,10.8-29.64-8.855,1.877-9.821.857-6.27-5.938-6.27-5.938S563.053,400.919,557.971,405.4Z" transform="translate(-257.876 -178.154)" opacity="0.02"/><path d="M654.045,209.972l-19.057,15.017-5.762.413-2.115.15-35.528,2.565-36.843-2.653-5.482-.394-6.987-.5L527.66,210.8a248.553,248.553,0,0,1,19.4-18.277c3.57-2.91,6.943-5.262,9.4-6.188l.419-.144a10.459,10.459,0,0,0,4.027-2.766c7.153-7.265,13.765-25.191,13.765-25.191s31.552-16.056,27.74,5.006S616.6,179.1,616.6,179.1l5.933,2.666,2.344,1.057,5.977,2.7,13.486,6.094C654.922,196.412,654.045,209.972,654.045,209.972Z" transform="translate(-248.744 -84.2)" fill="#be6f72"/><ellipse cx="28.376" cy="27.951" rx="28.376" ry="27.951" transform="translate(312.984 35.287)" opacity="0.1"/><path d="M653.484,250.085H526v-.307l1.055-18.146a248.532,248.532,0,0,1,19.4-18.277l80.039-3.129,3.723-3.867,13.486,6.094c10.589,4.793,9.738,18.352,9.738,18.352S654.888,246.519,653.484,250.085Z" transform="translate(-248.138 -104.403)" opacity="0.1"/><path d="M653.484,249.085H526v-.307l1.055-18.146a248.534,248.534,0,0,1,19.4-18.277l80.039-3.129,3.723-3.867,13.486,6.094c10.589,4.793,9.738,18.352,9.738,18.352S654.888,245.519,653.484,249.085Z" transform="translate(-248.138 -104.028)" fill="#e7c7ca"/><path d="M589.23,190.65s20.111,25.241,46.9-.519,2.966,57.46,2.966,57.46l-57.806,6.758Z" transform="translate(-268.306 -96.476)" opacity="0.1"/><path d="M589.23,192.65s20.111,25.241,46.9-.519,2.966,57.46,2.966,57.46l-57.806,6.758Z" transform="translate(-268.306 -97.225)" fill="#e7c7ca"/><path d="M633.554,202.382l2.128,31.968,2.28,10.637,1.741,8.134s4.447,62.572,3.176,65.7.635,5.631.9,7.3-.267,5.844-.057,7.721,0,2.709-4.866,2.04-11.65-1.833-11.65-1.833-17.151,1.251-23.078-.832-17.151-2.09-17.151-2.09-16.942.419-22.443-.207-8.474,6.676-12.069,4.587,4.231-22.313,6.771-28.157-3.386-20.649-3.386-20.649l7.623-41.654,1.7-9.442V205.918l.419-.144a10.459,10.459,0,0,0,4.027-2.766l1.906,29.872,59.712,2.09V201.35" transform="translate(-257.454 -102.527)" opacity="0.1"/><path d="M633.554,200.382l2.128,31.968,2.28,10.637,1.741,8.134s4.447,62.572,3.176,65.7.635,5.631.9,7.3-.267,5.844-.057,7.721,0,2.709-4.866,2.04-11.65-1.833-11.65-1.833-17.151,1.251-23.078-.832-17.151-2.09-17.151-2.09-16.942.419-22.443-.206-8.474,6.676-12.069,4.587,4.231-22.313,6.771-28.157-3.386-20.649-3.386-20.649l7.623-41.654,1.7-9.442V203.918l.419-.144a10.459,10.459,0,0,0,4.027-2.766l1.906,29.872,59.712,2.09V199.35" transform="translate(-257.454 -101.779)" fill="#e7c7ca"/><path d="M635.318,76.744a6.863,6.863,0,0,0-1.906-3.542,7.866,7.866,0,0,0-3.354-1.352,67.171,67.171,0,0,0-8.817-1.664,13.816,13.816,0,0,0-1.906-3.9c-6.225-8.66-15.436-16.826-26.273-18.671-5.673-.97-12.247-.1-15.881,4.3-1.995,2.422-2.852,5.631-4.866,8.009-3.881,4.618-10.888,5.187-15.779,8.76-2.611,1.877-4.5,4.6-6.352,7.24-2,2.86-4.059,5.838-4.694,9.254-1.27,6.827,3.31,13.334,4.154,20.223,1.906,15.411-14.864,29.083-11.695,44.288,1.848,8.866,10.164,15.111,18.765,18.277,3.03,1.12,6.492,2.234,7.909,5.1.635,1.251.743,2.7,1.34,3.961,2.007,4.217,8.607,4.38,12.152,1.308s4.663-8.04,5.082-12.677c1.7-20.248-6.53-40.252-5.571-60.551.286-6.138,2.039-13.1,7.623-15.881,7.515-3.754,16.554,2.5,24.825,1.308a47.835,47.835,0,0,1,2.376,29.6c-1.315,5.4-3.589,10.637-3.754,16.206-.248,8.478,4.4,16.225,8.41,23.721a12.5,12.5,0,0,1,1.7,4.574,10.881,10.881,0,0,1-.908,4.787c-2.268,6.013-6.181,11.595-6.625,18a2.875,2.875,0,0,0,.477,2.14,2.75,2.75,0,0,0,1.639.726c6.86,1.158,12.794-4.831,16.141-10.844a50.267,50.267,0,0,0,6.365-21.6c.692-12.74-3.945-25.273-3.659-38.025C632.561,105.326,639.212,90.728,635.318,76.744Z" transform="translate(-252.351 -44.854)" opacity="0.1"/><path d="M636.318,75.744a6.863,6.863,0,0,0-1.906-3.542,7.866,7.866,0,0,0-3.354-1.352,67.167,67.167,0,0,0-8.817-1.664,13.814,13.814,0,0,0-1.906-3.9c-6.225-8.66-15.436-16.826-26.273-18.671-5.672-.97-12.247-.1-15.881,4.3-1.995,2.422-2.852,5.631-4.866,8.009-3.881,4.618-10.888,5.187-15.779,8.76-2.611,1.877-4.5,4.6-6.352,7.24-2,2.86-4.059,5.838-4.694,9.254-1.271,6.827,3.31,13.334,4.154,20.223,1.906,15.411-14.864,29.083-11.695,44.288,1.849,8.866,10.164,15.111,18.765,18.277,3.03,1.12,6.492,2.234,7.909,5.1.635,1.251.743,2.7,1.34,3.961,2.007,4.217,8.607,4.38,12.152,1.308s4.663-8.04,5.082-12.677c1.7-20.248-6.53-40.252-5.571-60.551.286-6.138,2.039-13.1,7.623-15.881,7.515-3.754,16.554,2.5,24.825,1.308a47.834,47.834,0,0,1,2.376,29.6c-1.315,5.4-3.589,10.637-3.754,16.206-.248,8.478,4.4,16.225,8.41,23.721a12.5,12.5,0,0,1,1.7,4.574,10.882,10.882,0,0,1-.908,4.787c-2.268,6.013-6.181,11.595-6.625,18a2.875,2.875,0,0,0,.476,2.14,2.751,2.751,0,0,0,1.639.726c6.86,1.158,12.794-4.831,16.141-10.844a50.267,50.267,0,0,0,6.365-21.6c.692-12.74-3.945-25.273-3.659-38.025C633.561,104.326,640.212,89.728,636.318,75.744Z" transform="translate(-252.716 -44.48)" fill="#3e373a"/><path d="M581.79,482.194l25.2.795-3.614-18.409-19.3,1.808Z" transform="translate(-212.22 -173.881)" fill="#c3c7d9"/><path d="M726.052,443.22c-1.7,2.084-8.258,5.838-8.893,7.089s-8.468,5.006-12.495,5.631-16.726,3.341-19.057,4.8c-1.671,1.051-15.08,4.38-23.891,6.226a68.721,68.721,0,0,1-7.235,1.283c-3.811.206-45.521-13.766-45.521-13.766L617,446.348l.445-.15c2.274-.757,12.781-4.255,18.612-5.919,6.568-1.877,14.191-9.592,14.191-9.592s11.218-3.754,12.7-4.174-3.811-14.6-3.811-14.6,24.348-3.329,33.877-6.151,31.552-1.777,35.573,9.279S727.773,441.136,726.052,443.22Z" transform="translate(-278.4 -178.538)" fill="#4b4b5b"/><path d="M587.739,509.527s-4.866,5.006-9.738,4.593-21.909,1.251-21.909,1.251a34.283,34.283,0,0,0-8.582,4.9c-3.983,3.091-6.1.626-6.492.1l-.07-.1c-2.122,6.576-6.987,1.564-6.987,1.564s2.115-20.023,1.467-22.526,4.186-6.8,4.186-6.8l5.717-1.433,14.483-3.654,20.753,7.089Z" transform="translate(-251.042 -209.598)" fill="#e7c7ca"/><path d="M545.305,493.26l-4.288,29.3-.07-.1c-2.122,6.576-6.987,1.564-6.987,1.564s2.115-20.023,1.467-22.526,4.186-6.8,4.186-6.8Z" transform="translate(-251.042 -211.784)" opacity="0.1"/><path d="M599,360.08s11.218,3.754,20.963,0" transform="translate(-274.766 -161.937)" opacity="0.1"/><path d="M659.29,371.42s4.656,2.29,8.258,0" transform="translate(-296.758 -166.181)" opacity="0.1"/><path d="M659.29,379.471s7.832,1.032,9.319-1.051" transform="translate(-296.758 -168.802)" opacity="0.1"/><path d="M655.29,396.13s14.712-1.877,18.364-4.38" transform="translate(-295.299 -173.791)" opacity="0.1"/><path d="M584.62,391.75s8.258,4.587,14.4,4.38" transform="translate(-269.521 -173.791)" opacity="0.1"/><path d="M661.706,491.948a68.768,68.768,0,0,1-7.235,1.283c-3.811.206-45.521-13.766-45.521-13.766l8.042-8.134.445-.15c1.27.882,2.312,1.639,3.055,2.215,3.5,2.716,6.88-.832,8.15-.832s12.279,8.966,12.279,8.966,10.164,2.3,11.86,4.38,7.623,1.671,8.677,3.129A5.5,5.5,0,0,1,661.706,491.948Z" transform="translate(-278.396 -203.52)" opacity="0.1"/><path d="M533.02,413.321s-10.278.582-16.2-1.877-25.619-8.134-31.336-4.148S466,414.8,472.349,430.659s9.319,16.269,9.319,16.269a22.745,22.745,0,0,1,5.082,5.194c1.906,2.922,19.692,9.592,24.139,9.592s12.279,0,23.288,7.509,20.963,8.347,20.963,8.347,13.975,5.631,18.326,6.883,24.234,6.67,28.9,5.006,7.623-12.1,7.623-12.1,2.115-9.386,1.055-10.844-6.988-1.045-8.677-3.129S590.5,459,590.5,459s-10.983-8.973-12.254-8.973-4.65,3.542-8.15.832A186.319,186.319,0,0,0,548.176,437.1C540.134,432.924,533.02,413.321,533.02,413.321Z" transform="translate(-227.97 -179.093)" fill="#4b4b5b"/><path d="M536.27,427.275a12.265,12.265,0,0,1,10.411,2.709c5.082,4.174,22.182,12.552,22.182,12.552" transform="translate(-251.884 -186.997)" opacity="0.1"/><path d="M720.849,427s-22.659,3.379-26.889,7.965" transform="translate(-309.405 -186.984)" opacity="0.1"/><path d="M743.851,518.706h-1c-3.583-.125-15.722-.5-18.06,0-2.751.626-39.175,0-39.175,0l7.121-1.458s-2.642-9.123-.966-9.88c0,0-9.528-6.182-2.344-10.356a22.592,22.592,0,0,1,14.928-2.415l18.034-6.019,3.462-1.158s20.327,1.045,25.828,14.811S743.851,518.706,743.851,518.706Z" transform="translate(-306.363 -209.598)" fill="#e7c7ca"/><path d="M764.968,518.725h-1c5.914-4.805,19.292-19.435-20.461-30.1l3.462-1.158s20.327,1.045,25.828,14.811S764.968,518.725,764.968,518.725Z" transform="translate(-327.479 -209.617)" opacity="0.1"/><ellipse cx="1.112" cy="1.095" rx="1.112" ry="1.095" transform="translate(399.006 290.699)" fill="#4b4b5b"/><ellipse cx="1.112" cy="1.095" rx="1.112" ry="1.095" transform="translate(392.546 292.507)" fill="#4b4b5b"/><g transform="translate(286.007 39.354)" opacity="0.1"><path d="M637.972,129.293a47.9,47.9,0,0,0-3.646-20.111c-8.258,1.214-17.3-5.062-24.825-1.308-5.565,2.778-7.311,9.742-7.623,15.881-.076,1.621-.089,3.241-.057,4.862,0-.576,0-1.158.057-1.733.292-6.138,2.039-13.1,7.623-15.881,7.521-3.754,16.554,2.5,24.825,1.308A47.8,47.8,0,0,1,637.972,129.293Z" transform="translate(-561.797 -106.442)"/><path d="M555.448,128.9a20.538,20.538,0,0,0-.083-4.092c-.673-5.506-3.729-10.769-4.281-16.137-.711,6.476,3.475,12.7,4.281,19.266A3.854,3.854,0,0,1,555.448,128.9Z" transform="translate(-543.266 -107.193)"/><path d="M584.475,219.732c-.394,4.643-1.505,9.6-5.082,12.683s-10.164,2.91-12.152-1.308c-.635-1.251-.731-2.709-1.347-3.961-1.41-2.866-4.879-3.98-7.909-5.1-8.607-3.172-16.91-9.386-18.758-18.277a18.92,18.92,0,0,1-.337-2.44,19.431,19.431,0,0,0,.337,5.569c1.849,8.866,10.164,15.1,18.758,18.277,3.03,1.12,6.5,2.234,7.909,5.1.635,1.251.743,2.7,1.347,3.961,2,4.217,8.6,4.38,12.152,1.308s4.656-8.04,5.082-12.683a70.427,70.427,0,0,0,.2-7.346C584.672,216.935,584.589,218.337,584.475,219.732Z" transform="translate(-538.823 -141.874)"/><path d="M687.93,138.334v2.709c.356-11.638,4.688-23.339,4.262-34.734C691.862,116.847,688.171,127.622,687.93,138.334Z" transform="translate(-593.213 -106.31)"/><path d="M660.748,215.741a7.945,7.945,0,0,0,.146-2.259,12.394,12.394,0,0,0-1.7-4.574c-3.672-6.883-7.858-13.928-8.353-21.569,0,.325-.044.626-.051.976-.254,8.472,4.389,16.225,8.4,23.721A14.893,14.893,0,0,1,660.748,215.741Z" transform="translate(-579.663 -136.638)"/><path d="M679.487,217.511a50.349,50.349,0,0,1-6.409,21.6c-3.354,6.013-9.281,12-16.147,10.844a2.719,2.719,0,0,1-1.639-.732,1.56,1.56,0,0,1-.3-.488c-.076.488-.14.982-.178,1.483a2.85,2.85,0,0,0,.476,2.134,2.719,2.719,0,0,0,1.639.732c6.867,1.158,12.794-4.831,16.147-10.844a50.349,50.349,0,0,0,6.409-21.6c.076-1.464.083-2.922.038-4.38C679.513,216.679,679.513,217.092,679.487,217.511Z" transform="translate(-581.118 -147.462)"/></g><path d="M695.31,514.479s16.078,6.645,26.68-8.059" transform="translate(-309.897 -216.71)" fill="none" stroke="#000" stroke-miterlimit="10" stroke-width="1" opacity="0.1"/><path d="M700.29,535.575s13.13-8.41,29.856-.275" transform="translate(-311.714 -226.192)" fill="none" stroke="#000" stroke-miterlimit="10" stroke-width="1" opacity="0.1"/><path d="M561.93,530.969s5.514-12.252,20.238-2.91" transform="translate(-261.244 -223.494)" fill="none" stroke="#000" stroke-miterlimit="10" stroke-width="1" opacity="0.1"/><path d="M533.79,237.927l11.244-10.012s43.6-2.816,45.4,11.782c0,0,15.455-17.307,47.96-13.453l13.753,10.787-38.012,16.431L577.2,266.085l-27.207-12Z" transform="translate(-250.98 -111.636)" opacity="0.1"/><path d="M533.79,238.927l11.244-10.012s43.6-2.816,45.4,11.782c0,0,15.455-17.307,47.96-13.453l13.753,10.787-38.012,16.431L577.2,267.085l-27.207-12Z" transform="translate(-250.98 -112.01)" fill="#d5d6db"/><path d="M437.38,204.83l4.974,58.611,52.724,2.609-2.287-58.361-.044-.982Z" transform="translate(-159.543 -76.661)" opacity="0.1"/><path d="M437.38,202.83l4.974,58.611,52.724,2.609-2.287-58.361-.044-.982Z" transform="translate(-159.543 -75.913)" fill="#107bff"/><path d="M604.1,202.83l-54.388,8.034v58.874l53.15-7.565Z" transform="translate(-200.518 -75.913)" opacity="0.1"/><path d="M604.1,200.83l-54.388,8.034v58.874l53.15-7.565Z" transform="translate(-200.518 -75.164)" fill="#107bff"/><path d="M598.269,223.79l-29.379,3.216.642,9.861,28.719-3.091Z" transform="translate(-207.515 -83.758)" fill="#fff" opacity="0.3"/><path d="M537.557,358.857l2.992,7.928s4.447,3.754,9.312,1.877,9.109-2.809,11.224-4.637,5.082-11.006,5.082-11.006,2.966-10.012,5.927-12.514,10.8-36.986,0-33.614-19.057,34.659-19.057,34.659a7.552,7.552,0,0,1-4.656,2.5c-2.75.213-8.258-.419-9.319,1.877S534.381,354.271,537.557,358.857Z" transform="translate(-251.888 -141.943)" fill="#be6f72"/><path d="M629.131,256.737a18.5,18.5,0,0,1-15.951-3.917l2.293,58.355a16.3,16.3,0,0,0,13.657,4.443Z" transform="translate(-279.939 -121.792)" opacity="0.1"/><path d="M629.131,254.737a18.5,18.5,0,0,1-15.951-3.917l2.293,58.355a16.3,16.3,0,0,0,13.657,4.443Z" transform="translate(-279.939 -121.043)" fill="#107bff"/><path d="M629.131,254.737a18.5,18.5,0,0,1-15.951-3.917l2.293,58.355a16.3,16.3,0,0,0,13.657,4.443Z" transform="translate(-279.939 -121.043)" opacity="0.1"/><path d="M640.29,243.091s22.125-6.664,27.893-5.725" transform="translate(-289.828 -115.974)" opacity="0.1"/><path d="M586.958,239.624s-21.445-5.006-25.028-3.585" transform="translate(-261.244 -115.416)" opacity="0.1"/><path d="M662.25,245.813s14.794-5.344,20.143-2.8" transform="translate(-297.838 -117.864)" opacity="0.1"/><path d="M650.52,455.573a48.763,48.763,0,0,1,7.292-4.461,119.3,119.3,0,0,0,10.8-6.5" transform="translate(-293.559 -193.575)" opacity="0.1"/><path d="M552.41,360.08s-9.281,7.477-12.069,8.134-4.51,6.489-4.51,6.489" transform="translate(-251.724 -161.937)" opacity="0.1"/><path d="M692.327,357.088l-2.96,7.947s-4.447,3.754-9.319,1.877-9.1-2.809-11.224-4.637-5.082-11.006-5.082-11.006-2.96-10.011-5.927-12.514-10.8-36.986,0-33.614S676.872,339.8,676.872,339.8a7.553,7.553,0,0,0,4.656,2.5c2.751.213,8.258-.419,9.319,1.877S695.5,352.521,692.327,357.088Z" transform="translate(-294.204 -141.288)" fill="#be6f72"/><path d="M707.15,364.94s6.066,3.842,6.041,8.435" transform="translate(-314.216 -163.756)" opacity="0.1"/><ellipse cx="28.376" cy="27.951" rx="28.376" ry="27.951" transform="translate(313.085 33.917)" fill="#be6f72"/><path d="M590,112.673c3.443-.532,6.46-2.5,9.751-3.635,7.362-2.547,15.506-.8,22.957,1.5,2.859.882,5.762,1.877,8.76,1.877s6.181-1.208,7.712-3.754a8.375,8.375,0,0,0-.051-7.84,22.151,22.151,0,0,0-5.183-6.3c-6.606-6.145-14.8-11.889-23.866-11.263a33.227,33.227,0,0,0-10.488,2.96,116.311,116.311,0,0,0-12.311,6.107c-3.055,1.746-8.715,4.08-10.475,7.271C572.806,106.779,583.776,113.637,590,112.673Z" transform="translate(-266.359 -58.308)" fill="#3e373a"/><path d="M639.18,116.716c-1.531,2.547-4.713,3.754-7.712,3.754s-5.9-.957-8.766-1.84c-7.451-2.3-15.589-4.048-22.957-1.5-3.284,1.133-6.308,3.129-9.751,3.629-5.018.776-13.1-3.529-13.975-9-.985,6.326,8.385,11.745,13.975,10.881,3.443-.532,6.467-2.5,9.751-3.629,7.369-2.553,15.506-.8,22.957,1.5,2.865.882,5.761,1.877,8.766,1.84s6.181-1.2,7.712-3.754a7.234,7.234,0,0,0,.889-4.574,6.675,6.675,0,0,1-.889,2.7Z" transform="translate(-266.357 -68.996)" opacity="0.1"/><path d="M1032.047,661.63s3.767,4.849-1.741,12.177-10.043,13.509-8.214,18.077c0,0,8.309-13.6,15.068-13.8S1039.473,669.808,1032.047,661.63Z" transform="translate(-428.948 -274.802)" fill="#107bff"/><path d="M1032.171,661.63a5.971,5.971,0,0,1,.769,1.52c6.594,7.634,10.113,14.761,3.767,14.936-5.908.169-12.991,10.575-14.687,13.2a6.077,6.077,0,0,0,.2.626s8.309-13.6,15.068-13.8S1039.6,669.808,1032.171,661.63Z" transform="translate(-429.072 -274.802)" opacity="0.1"/><path d="M1048.5,670.857c0,1.708-.2,3.091-.432,3.091s-.438-1.383-.438-3.091.241-.9.483-.9S1048.5,669.149,1048.5,670.857Z" transform="translate(-438.414 -277.847)" fill="#ffd037"/><path d="M1051.086,674.05c-1.518.813-2.846,1.308-2.96,1.1s1.023-1.039,2.541-1.877.921-.225,1.035,0S1052.61,673.23,1051.086,674.05Z" transform="translate(-438.591 -279)" fill="#ffd037"/><path d="M1001.809,661.63s-3.767,4.849,1.74,12.177,10.043,13.509,8.207,18.077c0,0-8.3-13.6-15.068-13.8S994.4,669.808,1001.809,661.63Z" transform="translate(-418.617 -274.802)" fill="#107bff"/><path d="M1001.809,661.63a5.979,5.979,0,0,0-.769,1.52c-6.594,7.634-10.113,14.761-3.767,14.936,5.9.169,12.99,10.575,14.686,13.2a4.786,4.786,0,0,1-.2.626s-8.3-13.6-15.068-13.8S994.4,669.808,1001.809,661.63Z" transform="translate(-418.617 -274.802)" opacity="0.1"/><path d="M995.64,670.857c0,1.708.191,3.091.432,3.091s.438-1.383.438-3.091-.248-.9-.483-.9S995.64,669.149,995.64,670.857Z" transform="translate(-419.449 -277.847)" fill="#ffd037"/><path d="M991.329,674.05c1.518.813,2.846,1.308,2.96,1.1s-1.023-1.039-2.541-1.877-.921-.225-1.035,0S989.8,673.23,991.329,674.05Z" transform="translate(-417.54 -279)" fill="#ffd037"/><ellipse cx="39.384" cy="5.951" rx="39.384" ry="5.951" transform="translate(553.761 442.298)" fill="#107bff" opacity="0.1"/><path d="M1030.952,698.175l-.191,1.514-.267,2.14-.108.895-.267,2.14-.114.895-.26,2.134-3.017,24.34c-.267,2.171-3.869,3.867-8.22,3.867H1002.85c-4.351,0-7.947-1.7-8.22-3.867l-3.017-24.34-.267-2.134-.108-.895-.267-2.14-.114-.895-.26-2.14-.191-1.514c-.146-1.251,1.8-2.265,4.262-2.265H1026.7C1029.155,695.91,1031.1,696.942,1030.952,698.175Z" transform="translate(-417.537 -287.632)" fill="#65617d"/><path d="M942.3,658.53l-.26,2.14H902.4l-.267-2.14Z" transform="translate(-329.071 -246.473)" fill="#9d9cb5"/><path d="M942.136,663.38l-.26,2.14H902.987l-.267-2.14Z" transform="translate(-329.286 -248.288)" fill="#9d9cb5"/><path d="M941.98,668.23l-.267,2.14H903.58l-.26-2.14Z" transform="translate(-329.505 -250.103)" fill="#9d9cb5"/></g></svg>